<svg xmlns="http://www.w3.org/2000/svg" xmlns:xlink="http://www.w3.org/1999/xlink" version="1.1" width="256" height="256" viewBox="0 0 256 256" xml:space="preserve">

<defs>
</defs>
<g style="stroke: none; stroke-width: 0; stroke-dasharray: none; stroke-linecap: butt; stroke-linejoin: miter; stroke-miterlimit: 10; fill: none; fill-rule: nonzero; opacity: 1;" transform="translate(1.4065934065934016 1.4065934065934016) scale(2.81 2.81)" >
	<path d="M 34.052 41.639 H 7.587 C 3.403 41.639 0 38.235 0 34.052 V 7.587 C 0 3.403 3.403 0 7.587 0 h 26.465 c 4.184 0 7.587 3.403 7.587 7.587 v 26.465 C 41.639 38.235 38.235 41.639 34.052 41.639 z M 7.587 4 C 5.609 4 4 5.609 4 7.587 v 26.465 c 0 1.978 1.609 3.587 3.587 3.587 h 26.465 c 1.978 0 3.587 -1.609 3.587 -3.587 V 7.587 C 37.639 5.609 36.03 4 34.052 4 H 7.587 z" style="stroke: none; stroke-width: 1; stroke-dasharray: none; stroke-linecap: butt; stroke-linejoin: miter; stroke-miterlimit: 10; fill: rgb(0,0,0); fill-rule: nonzero; opacity: 1;" transform=" matrix(1 0 0 1 0 0) " stroke-linecap="round" />
	<path d="M 82.413 41.639 H 55.948 c -4.184 0 -7.587 -3.404 -7.587 -7.587 V 7.587 C 48.361 3.403 51.765 0 55.948 0 h 26.465 C 86.597 0 90 3.403 90 7.587 v 26.465 C 90 38.235 86.597 41.639 82.413 41.639 z M 55.948 4 c -1.978 0 -3.587 1.609 -3.587 3.587 v 26.465 c 0 1.978 1.609 3.587 3.587 3.587 h 26.465 c 1.978 0 3.587 -1.609 3.587 -3.587 V 7.587 C 86 5.609 84.391 4 82.413 4 H 55.948 z" style="stroke: none; stroke-width: 1; stroke-dasharray: none; stroke-linecap: butt; stroke-linejoin: miter; stroke-miterlimit: 10; fill: rgb(0,0,0); fill-rule: nonzero; opacity: 1;" transform=" matrix(1 0 0 1 0 0) " stroke-linecap="round" />
	<path d="M 34.052 90 H 7.587 C 3.403 90 0 86.597 0 82.413 V 55.948 c 0 -4.184 3.403 -7.587 7.587 -7.587 h 26.465 c 4.184 0 7.587 3.403 7.587 7.587 v 26.465 C 41.639 86.597 38.235 90 34.052 90 z M 7.587 52.361 C 5.609 52.361 4 53.971 4 55.948 v 26.465 C 4 84.391 5.609 86 7.587 86 h 26.465 c 1.978 0 3.587 -1.609 3.587 -3.587 V 55.948 c 0 -1.978 -1.609 -3.587 -3.587 -3.587 H 7.587 z" style="stroke: none; stroke-width: 1; stroke-dasharray: none; stroke-linecap: butt; stroke-linejoin: miter; stroke-miterlimit: 10; fill: rgb(0,0,0); fill-rule: nonzero; opacity: 1;" transform=" matrix(1 0 0 1 0 0) " stroke-linecap="round" />
	<path d="M 82.413 90 H 55.948 c -4.184 0 -7.587 -3.403 -7.587 -7.587 V 55.948 c 0 -4.184 3.403 -7.587 7.587 -7.587 h 26.465 c 4.184 0 7.587 3.403 7.587 7.587 v 26.465 C 90 86.597 86.597 90 82.413 90 z M 55.948 52.361 c -1.978 0 -3.587 1.609 -3.587 3.587 v 26.465 c 0 1.978 1.609 3.587 3.587 3.587 h 26.465 C 84.391 86 86 84.391 86 82.413 V 55.948 c 0 -1.978 -1.609 -3.587 -3.587 -3.587 H 55.948 z" style="stroke: none; stroke-width: 1; stroke-dasharray: none; stroke-linecap: butt; stroke-linejoin: miter; stroke-miterlimit: 10; fill: rgb(0,0,0); fill-rule: nonzero; opacity: 1;" transform=" matrix(1 0 0 1 0 0) " stroke-linecap="round" />
</g>
</svg>